<svg version="1.1" id="Layer_1" xmlns="http://www.w3.org/2000/svg"
	xmlns:xlink="http://www.w3.org/1999/xlink" x="0px" y="0px"
	viewBox="0 0 4000 4000" style="enable-background:new 0 0 4000 4000;" xml:space="preserve">
<g>
	<g>
		<rect style="fill:#FFFFFF;" width="4000" height="4000"/>
	</g>
	<g>
		<g>
			<circle style="fill:#FF2261;" cx="2000.198" cy="1981.429" r="1306.802"/>
		</g>
		<g>
			<g>
				<g>
					<path style="fill:#00A4FF;" d="M3338.22,3053.566c0,0-170.296,370.908-1016.194,96.282c0,0-290.92-985.088,255.271-1133.708
						c0,0,151.533-20.836,284.698,234.089c128.721,246.383,63.102,166.988,199.081,443.341c4.691,9.53,9.628,19.503,14.813,29.921
						c0,0,16.886,41.031,47.401,95.097c14.862,26.268,32.933,55.597,53.868,84.778c40.636,56.732,92.085,113.02,151.681,145.312
						C3331.95,3050.406,3335.06,3052.035,3338.22,3053.566z"/>
				</g>
				<g style="opacity:0.3;">
					<path style="fill:#000072;" d="M3338.22,3053.566c0,0-170.296,370.908-1016.194,96.282c0,0-290.92-985.088,255.271-1133.708
						c0,0,151.533-20.836,284.698,234.089c128.721,246.383,63.102,166.988,199.081,443.341
						c-9.529,8.147-14.862,12.591-14.862,12.591s-132.227-131.832-213.153-297.931c-76.438-156.934-261.946-221.361-362.506,41.26
						c-15.974,41.718-13.441,88.898,9.305,127.345c7.219,12.202,16.35,23.91,27.867,33.439
						c13.422,11.104,26.873,28.562,39.195,47.724c62.125,96.612,157.576,167.71,269.494,193.551
						c93.324,21.547,204.388,24.163,306.874-32.959c28.391-15.8,56.189-36.241,82.704-62.114c249.197-243.025,0,122.007,0,122.007
						s-10.171,10.27-28.835,24.885c-68.228,53.355-249.829,164.366-459.607,38.005c-14.223-8.567-31.587-11.207-47.322-5.908
						c-20.421,6.878-38.681,26.459-15.462,80.034c37.081,85.469,338.616,277.094,674.073,33.18
						C3331.95,3050.406,3335.06,3052.035,3338.22,3053.566z"/>
				</g>
				<g style="opacity:0.3;">
					<g>
						<path style="fill:#000072;" d="M3031.438,3131.843c-15.308-9.575-29.06-21.543-42.271-33.943
							c-13.127-12.52-25.618-25.769-37.393-39.636c-23.42-27.832-44.697-57.556-63.992-88.499
							c-19.404-30.898-37.004-62.947-53.11-95.728c-4.014-8.201-8.064-16.399-11.841-24.709c-3.872-8.276-7.71-16.575-11.331-24.956
							c-3.713-8.352-7.373-16.729-10.845-25.178c-3.513-8.433-7.141-16.841-10.01-25.5c-2.959-8.604-5.337-17.568-7.788-26.028
							l-7.344-25.718c-5.198-17.07-10.176-34.233-15.747-51.228c-10.696-34.141-22.603-67.935-34.431-101.816
							c-11.865-33.872-24.37-67.563-37.361-101.091c-12.739-33.647-26.155-67.041-39.9-100.374
							c36.184,62.405,69.25,126.631,100.398,191.892c15.566,32.642,30.366,65.674,44.512,99.06
							c7.231,16.624,13.904,33.506,20.793,50.317l9.912,25.41c3.301,8.582,6.68,16.66,9.473,25.1
							c20.115,67.974,43.45,135.366,75.039,199.148c15.61,31.96,33.276,62.957,53.313,92.471
							c10.029,14.741,20.652,29.121,32.134,42.842C3005.203,3107.307,3017.351,3120.613,3031.438,3131.843z"/>
					</g>
				</g>
				<g style="opacity:0.3;">
					<g>
						<path style="fill:#000072;" d="M2710.068,3138.701c-15.308-9.575-29.06-21.543-42.271-33.94
							c-13.13-12.522-25.618-25.771-37.393-39.639c-23.42-27.832-44.697-57.556-63.992-88.499
							c-19.404-30.898-37.004-62.947-53.11-95.728c-4.016-8.201-8.064-16.399-11.843-24.709c-3.87-8.276-7.708-16.575-11.328-24.956
							c-3.713-8.352-7.373-16.729-10.845-25.176c-3.513-8.435-7.141-16.843-10.01-25.503c-2.959-8.604-5.337-17.568-7.788-26.028
							l-7.344-25.718c-5.198-17.07-10.176-34.233-15.747-51.228c-10.696-34.141-22.605-67.935-34.431-101.816
							c-11.865-33.872-24.37-67.563-37.361-101.091c-12.739-33.647-26.155-67.041-39.9-100.374
							c36.184,62.405,69.25,126.631,100.398,191.892c15.566,32.642,30.366,65.674,44.512,99.06
							c7.231,16.624,13.904,33.506,20.793,50.317l9.91,25.41c3.303,8.582,6.68,16.66,9.475,25.1
							c20.112,67.974,43.45,135.366,75.037,199.148c15.61,31.96,33.279,62.957,53.313,92.471
							c10.032,14.741,20.654,29.121,32.136,42.842C2683.833,3114.165,2695.981,3127.471,2710.068,3138.701z"/>
					</g>
				</g>
				<g>
					<path style="fill:#000072;" d="M2869.548,3268.915c-157.422,0-342.246-34.238-552.866-102.617
						c-5.42-1.758-9.624-6.074-11.236-11.543c-0.454-1.528-45.385-155.059-66.763-347.378
						c-28.886-259.81-3.525-463.232,75.376-604.624c58.027-103.984,145.063-172.383,258.696-203.301
						c0.718-0.195,1.445-0.344,2.183-0.444c6.68-0.918,165.141-19.456,302.353,243.198
						c66.529,127.349,81.587,168.433,99.024,216.001c17.349,47.344,37.021,101.006,115.029,257.559
						c0.18,0.366,0.356,0.747,0.513,1.128c1.011,2.456,103.017,246.724,253.999,321.187c8.393,4.136,11.968,14.204,8.062,22.71
						c-1.856,4.043-47.231,99.736-200.254,159.99C3072.15,3252.88,2977.258,3268.915,2869.548,3268.915z M2336.145,3136.264
						c424.013,136.138,669.756,104.487,801.479,53.677c107.808-41.597,158.325-102.441,176.538-129.624
						c-151.021-86.836-247.236-313.33-254.023-329.683c-78.638-157.842-98.633-212.397-116.274-260.532
						c-17.021-46.436-31.719-86.538-97.207-211.89c-119.761-229.253-253.911-225.84-266.24-225.024
						c-103.618,28.564-183.066,91.26-236.152,186.367C2175.94,2521.113,2315.486,3061.181,2336.145,3136.264z"/>
				</g>
			</g>
			<g>
				<g>
					<path style="fill:#00A4FF;" d="M2648.077,2105.868c0,0,97.689,19.715,201.377,239.306
						c103.688,219.59,226.421,378.297,226.421,378.297s-129.081-337.368-167.171-480.807
						C2870.615,2099.225,2728.139,1915.715,2648.077,2105.868z"/>
				</g>
				<g>
					<path style="fill:#000072;" d="M3075.886,2740.751c-5.2,0-10.308-2.344-13.682-6.709
						c-1.235-1.602-125.078-162.725-228.374-381.489c-97.451-206.372-188.501-229.585-189.409-229.795
						c-4.966-1.152-9.292-4.463-11.611-8.999c-2.319-4.541-2.637-9.897-0.659-14.595c33.579-79.766,77.339-93.999,108.037-91.826
						c77.974,5.425,156.851,124.072,185.22,230.893c37.417,140.908,165.322,475.698,166.611,479.063
						c3.061,8.008-0.205,17.046-7.681,21.245C3081.677,2740.033,3078.767,2740.751,3075.886,2740.751z M2671.428,2096.396
						c35.639,17.236,113.77,72.227,193.652,241.401c49.219,104.233,103.14,195.132,145.791,261.333
						c-40.82-110.918-95.844-265.327-118.872-352.031c-24.844-93.564-96.074-201.24-154.209-205.283
						C2712.741,2040.024,2690.481,2058.417,2671.428,2096.396z"/>
				</g>
			</g>
			<g>
				<g>
					<path style="fill:#00A4FF;" d="M1622.673,3133.208c-573.692,232.953-612.205,22.367-614.624,1.629
						c0-0.247-0.049-0.494-0.049-0.691c-0.049-0.642-0.049-0.938-0.049-0.938c149.953-187.725,193.404-357.576,205.5-453.117
						c6.468-51.054,3.95-80.927,3.95-80.927l135.881-82.161l179.973-108.774c0,0,110.453,76.63,204.661,184.318
						C1879.524,2754.351,1984.496,2986.267,1622.673,3133.208z"/>
				</g>
				<g style="opacity:0.3;">
					<path style="fill:#000072;" d="M1622.673,3133.208c-573.692,232.953-612.205,22.367-614.624,1.629
						c0-0.247-0.049-0.494-0.049-0.691c-0.049-0.642-0.049-0.938-0.049-0.938s75.117,53.935,180.309,46.898
						c56.715-3.794,99.313-53.391,94.994-110.068c-4.725-61.999,0.426-151.144,48.104-236.569
						c25.846-46.309,4.166-104.429-45.872-121.999c-24.672-8.663-49.917-19.12-72.035-31.38c6.468-51.054,3.95-80.927,3.95-80.927
						l135.881-82.161c106.651-23.651,220.51-32.983,246.531-13.627c18.121,13.479,73.174,47.844,138.103,89.172
						C1879.524,2754.351,1984.496,2986.267,1622.673,3133.208z"/>
				</g>
				<g>
					<path style="fill:#000072;" d="M1195.666,3259.672c-60.005,0-108.213-11.523-144.424-34.619
						c-57.227-36.494-60.464-88.789-60.576-90.996c-0.21-4.209,1.128-8.354,3.76-11.646
						c222.578-278.604,205.967-519.443,205.776-521.846c-0.527-6.523,2.676-12.817,8.281-16.206l315.825-190.942
						c5.825-3.53,13.193-3.301,18.794,0.596c15.054,10.444,368.345,258.633,341.855,497.285
						c-11.88,107.036-97.944,193.809-255.801,257.91C1447.966,3222.782,1302.976,3259.672,1195.666,3259.672z M1026.115,3138.075
						c2.539,11.509,11.792,37.939,44.81,58.53c62.905,39.224,208.55,57.295,545.225-79.419
						c145.185-58.955,224.067-136.226,234.453-229.668c22.046-198.325-263.296-418.286-318.193-458.608l-297.241,179.707
						C1236.452,2660.019,1228.859,2881.103,1026.115,3138.075z"/>
				</g>
			</g>
			<g>
				<g>
					<path style="fill:#FFFFFF;" d="M3336.246,2493.699c-13.677,191.33-101.467,399.595-323.804,446.649
						c-105.417,22.318-214.684-5.628-300.449-70.854c-47.4-36.044-113.069-70.261-179.43-54.806c0,0-39.945-9.282-35.057-79.84
						c0,0,15.603-18.911,47.796-30.613c37.772-13.677,98.405-17.529,183.528,30.613c128.376,72.582,378.808,102.651,349.726-228.756
						c-5.036-57.127-18.318-125.068-42.019-205.352c-22.367-75.742,21.281-156.718,97.911-175.579
						c9.036-2.222,18.368-3.604,27.996-3.802c30.711-0.79,64.286,9.826,99.096,39.747
						C3312.447,2204.853,3347.01,2344.091,3336.246,2493.699z"/>
				</g>
				<g>
					<path style="fill:#FFA300;" d="M3336.246,2493.699c-104.626,56.189-193.798,41.87-257.69,12.393
						c-5.036-57.127-18.318-125.068-42.019-205.352c-22.367-75.742,21.281-156.718,97.911-175.579
						c37.723-9.332,81.321-3.357,127.093,35.945C3312.447,2204.853,3347.01,2344.091,3336.246,2493.699z"/>
				</g>
				<g style="opacity:0.3;">
					<path style="fill:#000072;" d="M3336.246,2493.699c-13.677,191.33-101.467,399.595-323.804,446.649
						c-105.417,22.318-214.684-5.628-300.449-70.854c-47.4-36.044-113.069-70.261-179.43-54.806c0,0-39.945-9.282-35.057-79.84
						c0,0,15.603-18.911,47.796-30.613c4.345,7.11,8.706,14.876,12.583,22.912c9.438,19.56,28.466,32.599,49.993,35.469
						c24.438,3.258,59.006,14.652,98.19,47.629c68.097,57.273,312.836,146.632,463.581-56.992
						c32.698-44.168,54.527-95.394,65.835-149.172c24.682-117.385,62.617-383.543-73.039-482.72
						c30.711-0.79,64.286,9.826,99.096,39.747C3312.447,2204.853,3347.01,2344.091,3336.246,2493.699z"/>
				</g>
				<g>
					<path style="fill:#000072;" d="M2939.831,2965.204c-83.945,0-167.798-28.354-238.306-81.943
						c-41.426-31.489-103.667-66.035-165.049-51.763l-3.906,0.908l-3.906-0.903c-2.217-0.513-54.219-13.53-48.379-97.871
						l0.385-5.537l3.535-4.277c3.379-4.097,84.824-99.219,253.135-4.038c78.53,44.414,194.272,67.388,262.842,12.881
						c77.266-61.416,84.101-209.082,19.761-427.041c-12.295-41.646-6.978-87.085,14.59-124.658
						c21.123-36.802,55.146-62.583,95.801-72.598c49.678-12.246,97.607,1.104,142.486,39.648
						c70.337,60.405,111.03,276.396,60.205,475.034c-46.597,182.114-159.185,300.811-317.017,334.219
						C2990.857,2962.587,2965.334,2965.204,2939.831,2965.204z M2565.749,2793.637c49.258,0,102.7,21.064,156.694,62.104
						c83.921,63.794,188.32,88.457,286.406,67.71c184.932-39.146,260.156-189.629,290.694-308.975
						c46.24-180.728,10.874-388.618-49.243-440.244c-35.923-30.854-73.506-41.724-111.694-32.314
						c-31.402,7.739-57.715,27.715-74.097,56.245c-16.889,29.434-21.055,65.029-11.421,97.671
						c69.639,235.898,59.073,391.973-31.401,463.882c-81.538,64.805-210.117,41.758-301.358-9.849
						c-124.907-70.649-190.156-22.476-205.869-7.725c-1.182,38.472,13.33,50.933,19.663,54.521
						C2544.436,2794.643,2554.992,2793.637,2565.749,2793.637z"/>
				</g>
			</g>
			<g>
				<g>
					<path style="fill:#FFFFFF;" d="M1391.943,1012.635l-313.188,587.715l-10.863,20.343
						C774.8,1371.495,855.973,993.231,896.609,860.362c6.617-21.775,24.984-36.933,46.314-40.587
						c6.863-1.136,14.023-1.136,21.182,0.247c11.307,2.172,22.565,4.543,33.674,7.159
						c194.835,45.722,355.947,157.606,388.239,181.059C1389.918,1011.105,1391.943,1012.635,1391.943,1012.635z"/>
				</g>
				<g>
					<path style="fill:#FFA300;" d="M1386.017,1008.241c-41.228,36.735-95.541,59.053-155.088,59.053
						c-128.87,0-233.299-104.429-233.299-233.299c0-2.271,0.049-4.542,0.148-6.814
						C1192.614,872.903,1353.726,984.787,1386.017,1008.241z"/>
				</g>
				<g style="opacity:0.3;">
					<path style="fill:#000072;" d="M1391.943,1012.635l-313.188,587.715c-102.553-276.255,53.967-415,44.537-576.754
						c-5.678-98.257-100.232-164.766-180.368-203.822c6.863-1.136,14.023-1.136,21.182,0.247
						c11.307,2.172,22.565,4.543,33.674,7.159c194.835,45.722,355.947,157.606,388.239,181.059
						C1389.918,1011.105,1391.943,1012.635,1391.943,1012.635z"/>
				</g>
				<g>
					<path style="fill:#000072;" d="M1067.878,1638c-4.067,0-8.042-1.438-11.196-4.119
						c-129.722-110.305-202.671-256.863-216.816-435.598c-11.572-146.211,20.234-277.646,40.225-342.978
						c11.352-37.09,48.872-59.561,87.217-52.268c234.868,44.612,427.075,189.722,435.142,195.879
						c6.733,5.137,8.75,14.395,4.766,21.865l-324.087,608.064c-2.461,4.617-6.875,7.871-12.017,8.848
						C1070.036,1637.897,1068.952,1638,1067.878,1638z M952.883,836.237c-18.037,0-34.351,11.553-39.746,29.182
						c-43.013,140.586-112.715,488.765,149.761,727.898l306.733-575.505c-45.254-31.936-214.292-143.879-408.774-180.82
						C958.181,836.484,955.51,836.237,952.883,836.237z"/>
				</g>
			</g>
			<g>
				<path style="fill:#FFFFFF;" d="M2369.081,1783.928c0,0-48.635,152.372-237.002,175.628c0,0-169.259,226.435-484.57,234.879
					c-315.311,8.492-395.694-122.698-395.694-122.698s-104.182,2.469-172.419-75.446c-0.049-0.049-0.049-0.049-0.049-0.049
					s23.799-35.106,43.648-48.586c0,0-55.547-14.27-75.396-36.488c0,0,23.799-76.186,18.269-177.751
					c-5.234-95.393-67.151-395.892,144.966-596.405c13.726-13.035,28.588-25.576,44.685-37.624c0,0-98.504-89.616-44.586-220.51
					c3.357-8.147,9.035-14.368,15.899-18.417c14.023-8.344,32.835-7.604,46.364,4.394
					c51.597,45.919,149.558,122.747,235.718,130.845c0,0-28.391-23.058-36.785-76.334c-5.283-33.822,31.995-57.967,60.485-39.006
					c41.426,27.65,99.245,62.016,153.014,79.346c0,0,180.813-263.615,345.776-411.248c63.496-56.831,163.284-42.66,208.068,29.872
					c85.123,137.807,181.8,410.754,61.917,863.872c0,0,14.813,61.324,13.776,141.757c0,0,19.553,17.726,90.95,24.885
					c0,0-7.11,118.995-84.086,143.584C2322.026,1752.426,2327.309,1763.042,2369.081,1783.928z"/>
			</g>
			<g>
				<path style="fill:#FFA300;" d="M2301.387,1442.201c119.885-453.118,23.208-726.064-61.917-863.871
					c-44.783-72.532-144.57-86.703-208.069-29.874c-145.575,130.283-303.463,350.847-338.573,400.9l610.364,501.208
					C2302.096,1445.135,2301.387,1442.201,2301.387,1442.201z"/>
			</g>
			<g>
				<path style="fill:#FFA300;" d="M2291.117,1395.443c-66.657,46.758-147.879,74.162-235.471,74.162
					c-226.929,0-410.902-183.973-410.902-410.902c0-37.624,5.036-74.063,14.566-108.675l26.317,9.678
					C2133.116,984.294,2258.826,1279.114,2291.117,1395.443z"/>
			</g>
			<g style="opacity:0.3;">
				<path style="fill:#000072;" d="M1377.466,1890.453c2.996,8.577,11.638,27.486,31.908,37.32c2.156,1.046,4.605-0.841,4.119-3.187
					l-2.95-14.26c-0.361-1.744,0.933-3.394,2.712-3.46l20.446-0.757c1.601-0.059,2.942,1.171,2.982,2.773
					c0.246,9.697,1.745,41.495,10.863,58.618l0,0c6.76,10.963,23.335,8.624,26.795-3.783l10.548-37.815
					c0.22-0.788,0.765-1.438,1.495-1.806c4.537-2.291,21.404-11.783,29.683-29.978c1.971-4.331,6.974-6.367,11.485-4.854
					c10.609,3.557,30.04,8.738,52.582,8.453c6.695-0.085,13.375,0.856,19.73,2.964l66.05,21.911c2.327,0.772,4.562-1.56,3.579-3.805
					c-2.399-5.479-10.112-12.112-16.882-20.257c-4.538-5.46-2.341-13.798,4.358-16.151c15.626-5.488,41.807-21.913,58.564-71.066
					c0.846-2.483-2.087-4.632-4.304-3.23c-16.182,10.229-61.693,35.852-102.764,29.557c-45.176-6.924-79.283-40.074-86.499-47.572
					c-0.87-0.904-2.202-1.122-3.328-0.567l-47.485,23.426c-0.799,0.394-1.365,1.12-1.544,1.992
					c-1.839,8.97-13.053,59.401-34.364,68.07c-18.418,7.492-44.451,5.078-54.714,3.708
					C1378.422,1886.413,1376.764,1888.443,1377.466,1890.453z"/>
			</g>
			<g style="opacity:0.3;">
				<path style="fill:#000072;" d="M2369.081,1783.928c0,0-48.635,152.372-237.002,175.628c0,0-169.259,226.435-484.57,234.879
					c-315.311,8.492-395.694-122.698-395.694-122.698s-104.182,2.469-172.419-75.446c0.951,0.372,27,11.441,81.54,17.757
					c17.639,2.043,33.413-11.081,34.576-28.8c0.274-4.18,0.672-8.786,1.231-13.826c0.634-5.715,7.818-7.958,11.53-3.566
					c25.739,30.458,103.053,111.359,222.166,144.305c7.01,1.939,14.49,0.794,20.64-3.088c15.848-10.003,51.745-28.097,97.034-22.241
					c7.033,0.909,14.149-0.873,19.673-5.32c19.658-15.828,71.989-51.054,135.663-38.445c7.751,1.535,15.793-0.24,21.873-5.287
					c33.284-27.63,151.978-118.264,341.827-177.723c59.961-18.779,92.128-84.533,68.022-142.558
					c-7.796-18.765-18.771-38.976-34.068-60.065c-5.789-7.98-0.145-19.272,9.713-19.148c13.874,0.174,33.03,2.305,54.824,9.992
					c12.062,4.254,24.042-6.799,20.525-19.097c-6.533-22.842-19.731-55.76-46.169-89.845
					c-30.951-39.905-45.586-90.329-40.579-140.581c11.178-112.186-7.195-308.169-239.247-413.672
					c0,0,379.845,56.091,441.218,457.117c0,0,14.813,61.324,13.776,141.757c0,0,19.553,17.726,90.95,24.885
					c0,0-7.11,118.995-84.086,143.584C2322.026,1752.426,2327.309,1763.042,2369.081,1783.928z"/>
			</g>
			<g style="opacity:0.3;">
				<path style="fill:#000072;" d="M1483.712,1138.403c-116.947,93.611-232.669,27.515-272.878-1.391
					c13.726-13.035,28.588-25.576,44.685-37.624c0,0-98.504-89.616-44.586-220.51c3.357-8.147,9.035-14.368,15.899-18.417
					c21.358,209.785,168.806,242.59,246.327,245.101C1490.242,1106.115,1497.056,1127.721,1483.712,1138.403z"/>
			</g>
			<g>
				<path style="fill:#000072;" d="M1618.547,2212.123c-257.7,0.005-352.656-94.463-375.645-123.301
					c-28.486-1.309-115.244-11.172-176.558-81.196c-5.176-5.916-5.713-14.58-1.299-21.087c1.665-2.454,11.797-17.188,24.585-31.443
					c-18.862-7.092-42.08-18.052-54.917-32.432c-4.048-4.534-5.415-10.862-3.604-16.665c0.225-0.72,22.793-74.719,17.49-171.65
					c-0.605-11.094-2.046-25.442-3.711-42.056c-13.545-135.029-41.411-412.937,185.288-595.137
					c-26.851-32.69-79.985-116.191-35.22-224.841c7.002-17,21.333-29.124,39.317-33.264c17.895-4.119,36.728,0.708,50.415,12.891
					c41.27,36.753,114.419,95.117,184.888,117.764c-6.025-12.62-11.475-28.428-14.497-47.659
					c-3.555-22.598,6.196-44.294,25.454-56.619c19.141-12.256,42.769-12.026,61.66,0.571
					c35.874,23.923,87.544,55.134,136.704,73.122c36.123-51.365,195.4-273.235,340.967-403.54
					c34.165-30.581,79.859-44.343,125.264-37.773c45.313,6.555,85.059,32.595,109.053,71.44
					c56.181,90.952,93.271,198.74,110.239,320.373c22.988,164.802,7.769,350.793-45.244,552.876
					c3.237,14.961,13.164,66.155,13.301,131.785c9.731,4.726,32.134,13.017,75.376,17.344c9.233,0.923,16.089,8.97,15.532,18.23
					c-0.283,4.739-7.026,104.221-69.395,146.133c5.708,3.477,13.159,7.639,22.842,12.48c7.617,3.809,11.323,12.603,8.731,20.715
					c-2.095,6.57-53.047,159.378-244.204,186.58c-29.854,36.978-198.14,228.032-493.379,235.957
					C1637.951,2211.991,1628.122,2212.123,1618.547,2212.123z M1251.775,2054.438c6.006,0,11.621,3.115,14.77,8.252
					c0.708,1.113,81.182,122.617,380.508,114.482c303.423-8.145,469.566-225.762,471.206-227.959
					c2.823-3.767,7.051-6.226,11.724-6.802c144.385-17.844,201.001-114.355,217.304-150.393
					c-27.851-15.288-37.612-25.613-40.722-31.836c-2.261-4.514-2.432-9.79-0.469-14.443c1.958-4.651,5.854-8.213,10.664-9.751
					c49.238-15.735,65.269-81.214,70.146-112.044c-59.688-8.247-79.727-23.884-83.365-27.178c-3.677-3.33-5.742-8.078-5.679-13.037
					c1.011-77.066-13.135-136.909-13.276-137.505c-0.669-2.783-0.635-5.698,0.098-8.464
					c115.337-435.94,31.084-703.042-59.907-850.347c-18.604-30.12-49.438-50.31-84.595-55.398
					c-35.274-5.1-70.742,5.581-97.261,29.319c-161.465,144.534-341.27,405.535-343.066,408.154
					c-4.326,6.296-12.256,9.026-19.556,6.67c-56.387-18.188-116.65-54.307-157.28-81.404c-7.422-4.951-16.333-5.032-23.853-0.217
					c-7.637,4.89-11.357,13.167-9.946,22.141c7.119,45.278,29.756,64.885,30.713,65.696c5.767,4.878,7.764,12.991,4.839,19.949
					c-2.925,6.963-10.005,11.274-17.476,10.566c-91.284-8.579-193.057-88.347-245.596-135.134
					c-5.405-4.819-12.583-6.653-19.673-5.022c-6.924,1.594-12.437,6.24-15.117,12.747c-48.462,117.634,36.616,197.79,40.264,201.145
					c3.779,3.479,5.835,8.477,5.576,13.608c-0.259,5.13-2.773,9.897-6.885,12.976c-227.261,170.105-199.79,444.004-186.587,575.635
					c1.709,17.031,3.184,31.741,3.833,43.616c4.502,82.319-9.546,147.952-15.991,172.993c15.293,11.106,43.516,21.167,60.181,25.474
					c6.572,1.697,11.548,7.085,12.71,13.772s-1.694,13.435-7.305,17.253c-9.941,6.758-22.397,21.594-30.972,32.844
					c61.724,60.598,148.672,59.636,149.702,59.646C1251.55,2054.438,1251.662,2054.438,1251.775,2054.438z M2336.418,1742.946
					L2336.418,1742.946L2336.418,1742.946z"/>
			</g>
			<g>
				<path style="fill:#000072;" d="M1238.508,2082.751c-3.765-6.013-6.24-11.26-8.699-17.1c-2.439-5.688-4.578-11.46-6.353-17.349
					c-1.75-5.896-3.364-11.782-4.404-17.83c-1.091-6.016-1.472-12.253-1.101-18.538c9.119,8.787,16.121,17.659,23.97,25.896
					c3.86,4.128,7.761,8.142,11.675,12.029l5.908,5.693c1.885,1.785,4.063,3.813,5.603,5.127L1238.508,2082.751z"/>
			</g>
			<g>
				<path style="fill:#000072;" d="M2316.033,1768.662c-7.417-3.218-14.006-6.755-20.64-10.823
					c-6.594-3.982-12.959-8.394-19.177-12.993c-12.305-9.368-24.121-19.79-33.55-32.336c15.059,4.238,29.275,8.22,43.577,11.975
					l21.208,5.72c6.97,1.855,14.094,4.004,20.554,6.035L2316.033,1768.662z"/>
			</g>
			<g>
				<path style="fill:#000072;" d="M2308.84,1600.049c-10.232-4.685-19.563-9.797-28.979-15.354
					c-9.382-5.464-18.552-11.306-27.427-17.654c-8.884-6.323-17.585-12.91-25.659-20.366c-7.976-7.527-15.696-15.461-21.67-24.612
					c9.578,5.198,19.082,9.631,28.762,13.696c9.583,4.175,19.351,7.917,29.05,11.648c9.739,3.672,19.575,7.1,29.348,10.564
					l29.177,9.895L2308.84,1600.049z"/>
			</g>
			<g>
				<path style="fill:#000072;" d="M2284.382,1445.251c-19.839-109.861-63.999-183.848-64.443-184.583l29.58-17.871
					c1.948,3.22,47.915,80.242,68.877,196.311L2284.382,1445.251z"/>
			</g>
			<g>
				<path style="fill:#000072;" d="M1874.604,994.629c-3.313,4.524-7.136,8.708-11.096,12.805
					c-4.004,4.065-8.154,8.037-12.515,11.868c-8.691,7.683-17.715,15.146-27.842,21.88c2.217-11.958,5.537-23.188,9.189-34.197
					c1.812-5.515,3.833-10.891,6.001-16.172c2.212-5.249,4.561-10.408,7.419-15.232L1874.604,994.629z"/>
			</g>
			<g>
				
					<ellipse transform="matrix(0.9431 -0.3325 0.3325 0.9431 -407.8829 692.8549)" style="fill:#FFFFFF;" cx="1820.704" cy="1538.334" rx="34.529" ry="45.973"/>
			</g>
			<g>
				<path style="fill:#000072;" d="M1347.209,1588.013c-11.599-9.331-22.905-17.756-34.49-25.454
					c-11.589-7.644-23.423-14.382-35.652-19.998c-6.021-3.071-12.412-5.073-18.589-7.793c-6.443-1.792-12.69-4.575-19.341-6.011
					c-13.127-4.18-26.777-5.928-41.643-9.517c13.777-5.859,29.182-8.828,44.436-7.507c7.722,0.105,15.181,2.043,22.712,3.667
					c7.283,2.395,14.651,4.792,21.411,8.433c13.733,6.807,26.265,15.854,36.733,26.731c5.186,5.493,10.015,11.27,14.136,17.544
					C1341.067,1574.331,1344.761,1580.913,1347.209,1588.013z"/>
			</g>
			<g>
				<path style="fill:#000072;" d="M1619.172,1419.961c0.195-22.253,6.865-43.738,16.55-63.679
					c9.897-19.866,23.445-38.381,40.583-53.455c16.973-15.166,37.585-26.777,59.565-32.793c21.934-6.086,45.139-6.411,66.343-0.315
					c-20.854,7.424-39.797,14.465-57.039,24.021c-17.275,9.331-32.903,20.488-47.366,33.354
					c-14.543,12.759-27.825,27.292-40.64,42.866C1644.333,1385.598,1632.095,1402.153,1619.172,1419.961z"/>
			</g>
			<g>
				<path style="fill:#000072;" d="M1515.102,1829.274c-19.001,8.105-40.16,10.339-58.114,0.123c-0.26-0.148-0.521-0.298-0.783-0.45
					c-26.204-15.235-64.596-67.034,27.423-93.848C1570.315,1709.838,1594.746,1795.302,1515.102,1829.274z"/>
			</g>
			<g>
				<path style="fill:#000072;" d="M1517.124,1815.176c-0.33,4.958-0.803,8.953-1.501,13.323c-0.691,4.272-1.44,8.528-2.444,12.744
					c-1.96,8.438-4.431,16.826-7.729,25.083c-3.198,8.293-7.249,16.445-12.4,24.297c-5.088,7.861-11.533,15.425-19.805,21.599
					c-8.162,6.187-18.423,10.842-28.953,11.892c-10.518,1.204-20.53-0.647-29.355-3.66c-8.994-2.927-16.409-8.091-23.042-13.728
					c-3.213-2.937-6.072-6.27-8.862-9.509c-2.498-3.618-4.98-7.136-6.904-11.189c4.548,0.662,8.538,1.855,12.51,2.947
					c3.967,1.04,7.854,2.036,11.511,3.193c7.488,1.809,14.453,4.041,21.069,4.932c6.577,1.091,12.839,1.023,18.154-0.574
					c5.298-1.638,9.873-4.346,14.011-8.389c4.102-4.038,7.715-9.233,10.923-15.037c3.154-5.845,5.767-12.329,8.147-19.033
					c2.271-6.753,4.275-13.767,5.969-20.913c0.774-3.591,1.682-7.168,2.349-10.786c0.693-3.511,1.426-7.437,1.943-10.437
					L1517.124,1815.176z"/>
			</g>
			<g>
				<path style="fill:#000072;" d="M1512.72,1805.198c1.13,1.235,3.076,3.206,4.727,4.797l5.315,5.01
					c3.625,3.301,7.407,6.45,11.208,9.558c7.715,6.062,15.754,11.66,24.17,16.35c16.76,9.468,34.954,15.583,53.535,15.969
					c9.292,0.3,18.657-1.03,27.834-3.716c4.673-1.104,9.048-3.237,13.677-4.858c4.407-2.161,8.997-4.077,13.271-6.75
					c17.612-9.822,34.155-23.162,50.889-37.527c-8.669,20.295-21.848,38.887-39.482,53.843c-4.28,3.889-9.265,6.96-14.072,10.337
					c-5.09,2.954-10.227,5.969-15.82,8.152c-10.984,4.692-22.913,8.083-35.156,8.987c-12.219,0.967-24.585,0.039-36.45-2.542
					c-11.848-2.688-23.23-6.807-33.875-12.085c-10.63-5.315-20.652-11.563-29.924-18.696c-4.639-3.562-9.126-7.302-13.425-11.282
					c-2.148-1.995-4.285-4.011-6.338-6.152c-2.136-2.224-3.945-4.111-6.35-6.931L1512.72,1805.198z"/>
			</g>
			<g>
				<path style="fill:#000072;" d="M1449.133,1980.151c-1.797,0-3.584-0.491-5.161-1.455c-40.405-24.766-47.28-70.771-47.554-72.72
					c-0.464-3.306,0.776-6.624,3.296-8.816c2.524-2.192,5.986-2.954,9.185-2.053c40.503,11.516,52.056-5.625,52.529-6.36
					c2.656-4.656,8.496-6.238,13.208-3.689c4.722,2.551,6.479,8.506,4.038,13.284c-7.51,14.707-16.87,58.252-19.844,73.789
					c-0.605,3.183-2.739,5.867-5.708,7.178C1451.848,1979.872,1450.49,1980.151,1449.133,1980.151z M1419.958,1917.707
					c3.696,10.191,10.518,23.962,22.651,35.256c2.178-10.103,5.303-23.691,8.823-36.255
					C1443.244,1918.813,1432.888,1919.616,1419.958,1917.707z"/>
			</g>
			<g>
				<path style="fill:#000072;" d="M1674.494,1934.523c-1.138,0-2.29-0.198-3.403-0.605c-55.278-20.308-71.108-57.356-71.753-58.923
					c-1.299-3.147-0.889-6.738,1.094-9.509c1.978-2.766,5.22-4.333,8.643-4.114c37.798,2.351,61.411-22.263,61.646-22.51
					c2.388-2.549,5.947-3.65,9.351-2.883c3.403,0.759,6.157,3.259,7.241,6.58c17.998,55.234-3.862,86.55-4.8,87.856
					C1680.617,1933.049,1677.605,1934.523,1674.494,1934.523z M1626.15,1880.568c7.646,9.329,21.196,21.85,43.701,31.594
					c3.418-8.542,7.529-25.117,2.5-49.238C1662.248,1869.88,1646.477,1878.127,1626.15,1880.568z"/>
			</g>
			<g>
				<path style="fill:#000072;" d="M1700.442,968.574c-4.58,6.477-9.539,12.727-14.556,18.943
					c-4.973,6.238-10.222,12.317-15.469,18.393c-5.33,6.028-10.669,12.051-16.272,17.915c-5.574,5.884-11.196,11.736-17.209,17.356
					c2.1-7.959,4.587-15.684,7.126-23.379c2.507-7.715,5.281-15.271,8.064-22.82c2.861-7.502,5.728-15.002,8.862-22.341
					c3.096-7.361,6.25-14.69,9.783-21.792L1700.442,968.574z"/>
			</g>
			<g>
				<path style="fill:#000072;" d="M1268.132,1087.568c0.886,0.977,2.62,2.71,4.077,4.072l4.709,4.333
					c3.196,2.888,6.558,5.662,10.012,8.318c6.943,5.266,14.18,10.208,21.702,14.663c15.09,8.857,31.519,15.176,48.628,18.892
					c8.584,1.697,17.339,2.646,26.199,2.898c8.882,0.3,17.751-0.779,26.719-1.953c17.869-2.9,35.642-8.354,54.033-14.819
					c-13.774,13.794-31.035,24.194-49.99,30.862c-19.041,6.326-39.722,9.011-60.276,7.422c-20.564-1.584-40.728-7.383-59.404-15.981
					c-9.377-4.26-18.362-9.326-26.882-15.115c-4.277-2.876-8.459-5.896-12.539-9.128c-2.058-1.594-4.063-3.262-6.04-5.032
					c-2.063-1.833-3.779-3.372-6.189-5.82L1268.132,1087.568z"/>
			</g>
			<g>
				<g>
					
						<ellipse transform="matrix(0.9711 -0.2386 0.2386 0.9711 -322.7597 475.9984)" style="fill:#000072;" cx="1805.132" cy="1571.43" rx="91.229" ry="124.944"/>
				</g>
				<g>
					
						<ellipse transform="matrix(0.9711 -0.2386 0.2386 0.9711 -310.6578 472.1242)" style="fill:#FFFFFF;" cx="1795.184" cy="1519.5" rx="34.955" ry="39.417"/>
				</g>
				<g style="opacity:0.3;">
					<path style="fill:#FFFFFF;" d="M1840.161,1598.053c13.633-3.349,27.4,4.988,30.749,18.621
						c3.349,13.633-4.988,27.4-18.621,30.749c-13.633,3.349-27.4-4.988-30.749-18.621
						C1818.191,1615.169,1826.528,1601.402,1840.161,1598.053z"/>
				</g>
			</g>
			<g>
				<g>
					
						<ellipse transform="matrix(0.9711 -0.2386 0.2386 0.9711 -370.908 356.4615)" style="fill:#000072;" cx="1287.205" cy="1710.573" rx="84.365" ry="115.543"/>
				</g>
				<g>
					
						<ellipse transform="matrix(0.9711 -0.2386 0.2386 0.9711 -359.7149 352.8773)" style="fill:#FFFFFF;" cx="1278.005" cy="1662.55" rx="32.325" ry="36.451"/>
				</g>
				<g style="opacity:0.3;">
					<path style="fill:#FFFFFF;" d="M1319.598,1735.193c12.607-3.097,25.339,4.613,28.436,17.22
						c3.097,12.607-4.613,25.338-17.22,28.435c-12.607,3.097-25.338-4.613-28.435-17.22
						C1299.281,1751.021,1306.991,1738.29,1319.598,1735.193z"/>
				</g>
			</g>
			<g>
				<path style="fill:#FFC2DE;" d="M1860.183,985.105c0,0,133.262-206.057,229.621-320.258c21.927-25.986,63.173-21.53,79.177,8.469
					c45.746,85.744,138.017,322.716,90.186,628.1C2259.168,1301.416,2170.19,1053.878,1860.183,985.105z"/>
			</g>
			<g>
				<path style="fill:#000072;" d="M2242.905,1307.261c-1.55-4.082-3.748-9.224-5.886-13.862c-2.178-4.753-4.502-9.487-6.895-14.197
					c-4.832-9.407-10.049-18.665-15.51-27.791c-11.038-18.193-23.257-35.728-36.477-52.476
					c-26.501-33.43-56.843-63.921-90.608-90.056c-8.298-6.724-17.114-12.761-25.759-19.019c-8.933-5.85-17.705-11.946-26.953-17.302
					c-18.181-11.218-37.234-20.984-56.621-29.99c-38.948-17.686-79.829-31.204-121.741-40.588l-0.015-0.003
					c-9.287-2.007-15.19-11.162-13.184-20.452c0.4-1.855,1.086-3.574,2.002-5.124l0.413-0.681
					c30.713-51.44,63.203-101.44,97.144-150.693c16.831-24.705,34.29-49.011,52.021-73.152
					c17.808-24.121,35.857-48.057,55.042-71.34c4.668-5.891,9.58-11.658,14.438-17.451l7.295-8.684
					c1.951-2.422,6.06-6.99,9.934-10.337c8.018-6.956,17.81-12.078,28.142-14.512c10.337-2.439,21.106-2.415,31.306-0.039
					c10.203,2.361,19.875,7.117,27.942,13.85c3.999,3.384,7.683,7.161,10.764,11.36c1.685,2.007,2.944,4.258,4.277,6.47l1.912,3.294
					l1.292,2.593c6.919,13.811,13.188,27.747,19.048,41.816c11.721,28.123,21.055,57.075,27.686,86.641
					c6.592,29.556,10.896,59.634,10.994,90.159c-13.357-27.449-24.829-54.812-36.504-81.9
					c-11.768-27.034-23.193-53.935-35.42-80.305c-6.099-13.179-12.563-26.16-19.47-38.701l-1.289-2.356l-0.999-1.465
					c-0.647-0.935-1.167-1.973-1.987-2.739c-1.384-1.76-3.032-3.235-4.746-4.592c-3.479-2.649-7.607-4.456-11.946-5.254
					c-8.765-1.631-17.761,0.964-23.938,6.687c-2.288,1.926-7.778,9.05-12.192,14.468c-4.592,5.698-9.224,11.35-13.682,17.212
					l-13.499,17.434l-13.262,17.688c-8.962,11.687-17.686,23.633-26.506,35.469l-51.963,71.992l-102.81,145.159l-10.769-26.257
					l0.017,0.005c44.099,9.871,87.336,24.138,128.643,42.905c20.569,9.548,40.798,19.934,60.137,31.853
					c9.824,5.703,19.172,12.173,28.665,18.408c9.209,6.646,18.577,13.088,27.415,20.234c35.938,27.832,68.245,60.273,96.47,95.886
					c14.082,17.844,27.109,36.531,38.928,56.018c5.857,9.78,11.462,19.727,16.697,29.924c2.6,5.112,5.132,10.269,7.544,15.532
					c2.451,5.378,4.639,10.352,6.992,16.572L2242.905,1307.261z"/>
			</g>
			<g style="opacity:0.3;">
				<path style="fill:#000072;" d="M2301.387,1442.18c0,0,27.617-198.429-139.403-354.933c-5.021-4.705-6.973-11.809-5.187-18.455
					c6.618-24.614,14.834-90.154-50.419-170.558c-2.962-3.649-4.524-8.207-4.317-12.903c0.612-13.879-1.506-45.316-30.259-63.574
					c-8.762-5.563-11.018-17.398-5.288-26.051l48.899-73.858c7.405-11.184,23.782-11.289,31.276-0.165
					c20.881,30.998,59.448,90.782,98.213,163.986c0,0-49.848-243.46-112.537-237.86c-62.689,5.6-164.434,178.283-164.434,178.283
					s93.81,2.687,84.287,101.085c0,0,80.389,37.174,46.543,169.358C2098.761,1096.536,2266.472,1231.1,2301.387,1442.18z"/>
			</g>
			<g>
				<path style="fill:#FFFFFF;" d="M2098.751,1096.524c0,0-2.963-2.962-8.74-7.999c-25.626-22.268-106.75-84.629-229.842-103.441
					l102.108-150.94c0,0,9.085-0.642,21.528,0.889c30.168,3.851,80.235,20.787,68.434,92.134
					C2052.239,927.167,2134.202,969.135,2098.751,1096.524z"/>
			</g>
			<g style="opacity:0.3;">
				<path style="fill:#000072;" d="M2090.011,1088.525c-25.626-22.268-106.75-84.629-229.842-103.441l102.108-150.94
					c0,0,9.085-0.642,21.528,0.889l-36.398,70.978c-6.065,11.828-1.6,26.68,10.377,32.446c11.108,5.347,22.604,14.781,25.684,31.288
					c1.756,9.414,8.766,16.914,17.844,19.964C2028.412,998.813,2078.762,1024.145,2090.011,1088.525z"/>
			</g>
			<g>
				<path style="fill:#000072;" d="M2098.762,1113.818c-4.546,0-8.975-1.797-12.261-5.105
					c-0.825-0.825-86.065-84.719-228.926-106.526c-5.859-0.894-10.85-4.727-13.228-10.156c-2.373-5.43-1.802-11.697,1.519-16.607
					l102.09-150.964c2.969-4.387,7.783-7.173,13.066-7.556c2.305-0.166,57.549-3.755,89.234,30.977
					c16.294,17.856,23.154,41.702,20.454,71.003c23.481,17.993,75.366,72.004,44.702,182.28c-1.65,5.933-6.328,10.537-12.285,12.092
					C2101.682,1113.632,2100.217,1113.818,2098.762,1113.818z M1889.348,972.824c97.192,20.342,165.498,65.405,198.755,91.641
					c13.916-89.949-41.299-120.593-43.877-121.968c-6.543-3.486-10.264-10.825-9.058-18.14c3.877-23.445,0.366-41.338-10.439-53.179
					c-14.727-16.14-40.327-19.285-53.257-19.795L1889.348,972.824z"/>
			</g>
			<g>
				<g>
					<path style="fill:#FFFFFF;" d="M2689.675,3499.03c-123.784,79.346-225.349,8.443-376.635-31.748
						c-151.335-40.192-119.538-164.42-119.538-164.42s90.949-111.736,368.093-86.999c8.246,0.74,16.244,1.629,23.996,2.617
						c105.96,13.727,162.445,51.992,183.331,97.467C2797.659,3378.406,2759.196,3454.444,2689.675,3499.03z"/>
				</g>
				<g style="opacity:0.3;">
					<path style="fill:#000072;" d="M2689.675,3499.03c-123.784,79.346-225.349,8.443-376.635-31.748
						c-151.335-40.192-119.538-164.42-119.538-164.42s90.949-111.736,368.093-86.999c8.246,0.74,16.244,1.629,23.996,2.617
						c-23.724,62.581-89.538,154.052-270.435,126.195c-11.801-1.817-22.5,7.341-22.147,19.276
						c0.393,13.294,5.158,29.226,23.19,38.255c34.908,17.479,190.441,59.793,215.82,82.012
						c25.428,22.219,75.495-13.677,8.196-82.012c0,0,52.804,4.217,82.893,36.711c14.896,16.087,37.961,22.285,58.052,13.505
						c24.086-10.525,46.049-32.589,28.907-78.805c0,0,54.757-7.159,58.855-57.67
						C2797.659,3378.406,2759.196,3454.444,2689.675,3499.03z"/>
				</g>
				<g>
					<path style="fill:#000072;" d="M2572.209,3552.27c-54.424,0-108.32-18.242-166.763-38.018
						c-30.674-10.381-62.392-21.118-96.86-30.273c-165.928-44.097-132.202-183.984-131.841-185.391
						c0.62-2.427,1.763-4.688,3.34-6.626c3.955-4.854,100.024-118.564,383.066-93.335c175.019,15.605,218.677,89.39,229.126,131.982
						c15.615,63.662-21.861,137.188-93.262,182.959C2654.987,3541.791,2613.445,3552.27,2572.209,3552.27z M2209.436,3311.108
						c-3.477,20.151-11.245,107.769,108.027,139.463c35.576,9.458,67.852,20.381,99.068,30.942
						c102.002,34.517,175.698,59.463,263.833,2.954c58.955-37.793,90.445-96.313,78.345-145.625
						c-14.243-58.066-84.785-95.64-198.623-105.791C2321.76,3211.796,2225.866,3294.711,2209.436,3311.108z"/>
				</g>
				<g>
					<path style="fill:#000072;" d="M2593.35,3525.371l0.42-1.301c0.188-0.549,0.369-1.152,0.53-1.824
						c0.325-1.296,0.762-2.549,1.021-3.928c0.676-2.676,1.121-5.447,1.626-8.218c0.32-2.786,0.698-5.601,0.901-8.413
						c-0.015-2.8,0.405-5.671,0.117-8.467c-0.286-11.301-2.71-22.573-7.451-33.386c-2.766-5.178-5.283-10.693-9.082-15.542
						c-3.218-5.291-7.595-9.79-11.721-14.741c-4.211-4.875-9.287-8.994-13.918-13.933c-5.12-4.248-10.359-8.569-15.549-13.413
						c6.753,1.465,13.564,3.276,20.303,5.479c3.24,1.357,6.479,2.798,9.709,4.316c3.213,1.55,6.638,2.832,9.548,4.976
						c3.015,1.975,6.111,3.923,9.128,6.008l2.263,1.57l2.068,1.833l4.15,3.708c5.801,4.746,10.281,10.908,15.1,16.875
						c8.809,12.607,14.768,27.612,17.134,43.191c1.165,7.791,1.44,15.701,0.881,23.567c-0.381,3.926-0.757,7.864-1.594,11.782
						c-0.33,1.948-0.813,3.95-1.343,5.92c-0.239,0.972-0.535,1.99-0.876,3.042c-0.322,1.021-0.615,2.004-1.182,3.503
						L2593.35,3525.371z"/>
				</g>
				<g>
					<path style="fill:#000072;" d="M2727.712,3450.349l-1.543-8.831l-1.765-9.287c-1.292-6.184-2.551-12.388-4.15-18.479
						c-1.531-6.108-3.167-12.173-5.171-18.076c-1.824-5.977-3.975-11.804-6.477-17.415c-4.761-11.416-11.035-21.75-18.494-31.426
						c-3.792-4.79-7.93-9.395-12.566-13.989c-4.719-4.465-9.995-8.64-15.896-13.169c7.275-1.045,14.839-0.483,22.188,1.416
						c7.31,1.975,14.346,5.271,20.791,9.482c12.783,8.621,22.852,20.591,30.901,33.198c3.979,6.375,7.515,12.959,10.63,19.683
						c2.966,6.785,5.664,13.652,7.883,20.645c2.151,7.009,4.058,14.07,5.391,21.257c0.742,3.577,1.289,7.197,1.758,10.845
						c0.493,3.745,0.806,7.112,0.979,11.448L2727.712,3450.349z"/>
				</g>
			</g>
			<g>
				<g>
					<path style="fill:#FFFFFF;" d="M1432.727,2601.929c-6.468,11.406-13.875,22.268-22.12,32.439
						c-64.484,79.1-181.405,59.991-268.158,30.119c-62.707-21.626-109.663-48.931-109.663-48.931
						c-6.567-0.839-12.887-2.37-19.01-4.592c-0.049,0-0.049,0-0.099,0c-96.43-34.563-136.029-229.398-63.398-298.671
						c79.247-75.594,112.132,2.765,112.132,2.765c121.661-23.256,111.638,80.432,111.638,80.432
						c14.714,3.851,27.749,7.9,38.562,11.702c20.935,7.159,33.724,13.084,34.859,13.627c0.05,0,0.099,0.05,0.099,0.05
						c0.099-15.208,1.481-30.465,3.654-45.278c7.505-50.807,24.589-96.183,32.39-115.094c2.518-6.023,4.049-9.381,4.049-9.381
						C1456.92,2234.083,1513.258,2460.124,1432.727,2601.929z"/>
				</g>
				<g>
					<path style="fill:#FFA300;" d="M1432.727,2601.929c-6.468,11.406-13.875,22.268-22.12,32.439
						c-64.484,79.1-181.405,59.991-268.158,30.119c32.045-61.769,96.578-103.935,170.987-103.935
						C1358.466,2560.553,1399.941,2576.057,1432.727,2601.929z"/>
				</g>
				<g style="opacity:0.3;">
					<path style="fill:#000072;" d="M1432.727,2601.929c-6.468,11.406-13.875,22.268-22.12,32.439
						c-64.484,79.1-181.405,59.991-268.158,30.119c-62.707-21.626-109.663-48.931-109.663-48.931
						c84.192,23.905,159.837,24.139,217.459,17.219c60.146-7.224,103.255-61.855,97.01-122.111
						c-5.976-57.665-4.032-105.03-1.448-134.094c1.785-20.08-4.633-40.033-17.859-55.247
						c-23.594-27.139-36.889-47.135-44.335-60.825c2.518-6.023,4.049-9.381,4.049-9.381
						C1456.92,2234.083,1513.258,2460.124,1432.727,2601.929z"/>
				</g>
				<g style="opacity:0.3;">
					<path style="fill:#000072;" d="M1313.436,2476.17c-24.589-42.611-65.867-55.3-65.867-55.3
						c0.099-15.208,1.481-30.465,3.654-45.278C1301.487,2410.699,1313.436,2476.17,1313.436,2476.17z"/>
				</g>
				<g style="opacity:0.3;">
					<path style="fill:#000072;" d="M1212.611,2407.193c1.384,60.011-31.718,83.445-50.447,91.879
						c-7.487,3.372-12.945,9.935-14.949,17.897c-19.591,77.857-113.787,43.583-113.787,43.583
						c122.253-2.913,66.558-84.382,66.558-84.382c77.026,3.209,74.063-80.679,74.063-80.679
						C1188.763,2399.342,1201.798,2403.391,1212.611,2407.193z"/>
				</g>
				<g>
					<path style="fill:#000072;" d="M1277.346,2707.89c-110.439,0.015-229.009-63.75-250.254-75.698
						c-50.703-8.13-94.248-53.604-116.973-122.471c-22.124-67.046-22.729-161.343,28.218-209.937
						c31.25-29.8,60.903-42.012,88.101-36.338c22.793,4.761,37.334,21.025,45.063,32.627c39.243-5.298,69.819,1.812,91.074,21.182
						c22.07,20.122,27.539,48.062,28.672,65.029c16.099,4.629,29.746,9.341,40.234,13.286
						c6.66-77.646,38.975-148.394,40.488-151.675c2.563-5.552,7.871-9.336,13.955-9.946c72.92-7.383,132.954,25.493,169.014,92.48
						c51.895,96.421,38.594,233.491-30.942,318.838C1386.027,2691.865,1332.697,2707.885,1277.346,2707.89z M1013.42,2296.679
						c-14.263,0-31.816,9.604-51.226,28.115c-33.804,32.241-41.899,105.459-19.253,174.097
						c18.965,57.48,53.355,94.683,91.997,99.512c2.3,0.288,4.526,1.04,6.533,2.202c2.539,1.475,255.342,146.03,355.728,22.827
						c60.225-73.911,72.217-197.173,27.305-280.62c-27.324-50.757-71.396-77.095-125.107-75.171
						c-9.746,23.794-34.141,89.639-34.541,153.335c-0.034,5.903-3.081,11.377-8.081,14.521c-4.985,3.149-11.24,3.521-16.587,0.996
						c-0.264-0.127-28.384-13.262-70.522-24.297c-8.213-2.148-13.643-9.941-12.827-18.389c0.024-0.244,2.608-32.817-17.705-51.152
						c-14.966-13.511-39.673-17.08-73.467-10.615c-8.023,1.543-16.026-2.754-19.185-10.288c-0.044-0.107-9.282-20.879-27.3-24.512
						C1017.326,2296.865,1015.407,2296.679,1013.42,2296.679z"/>
				</g>
				<g>
					<path style="fill:#000072;" d="M1255.447,2405.483c6.772,5.21,12.2,10.229,17.886,15.652
						c5.562,5.381,10.869,10.977,15.884,16.78c4.973,5.864,9.629,11.963,13.823,18.286c4.104,6.421,7.693,13.098,10.4,19.951
						c-10.269-10.642-22.424-18.276-35.007-24.734c-6.34-3.174-12.791-6.04-19.321-8.608c-6.423-2.498-13.381-5.002-19.404-6.555
						L1255.447,2405.483z"/>
				</g>
				<g>
					<path style="fill:#000072;" d="M1076.907,2311.985c0.693,2.896,1.064,4.761,1.401,7.129c0.332,2.251,0.525,4.543,0.667,6.87
						c0.222,4.68,0.039,9.612-1.162,14.963c-0.598,2.668-1.396,5.439-2.732,8.303c-0.583,1.409-1.372,2.844-2.253,4.268l-0.652,1.06
						l-0.298,0.483c0.188-0.242,0.364-0.496,0.527-0.759c0.649-1.042,1.201-2.283,1.516-3.599c0.649-2.646,0.425-5.581-0.828-8.267
						c-1.201-2.683-3.699-5.154-6.492-6.333c-4.407-1.436-1.282-0.474-0.601-0.486l3.218,0.613
						c8.547,1.772,17.078,4.563,25.364,8.943c8.21,4.419,16.125,10.696,22.349,18.755c6.223,8.03,10.542,17.7,12.332,27.29
						c0.923,4.783,1.35,9.551,1.455,14.155c0.034,4.202-0.063,8.44-0.383,12.742c-0.691,8.582-2.224,17.527-5.627,26.331
						c-3.315,8.784-8.508,17.551-15.925,24.81c-1.829,1.826-3.853,3.511-5.962,5.105l-0.356,0.273l0.459-0.361
						c0.295-0.254,0.557-0.53,0.852-0.82c0.544-0.593,1.06-1.257,1.472-1.982c0.847-1.45,1.355-3.088,1.487-4.756
						c0.334-3.276-1.14-7.126-3.875-9.429c-0.349-0.281-0.664-0.537-0.999-0.769l-0.52-0.322c-0.127-0.066,0.173,0.117,0.239,0.164
						l1.445,0.95c0.967,0.618,1.914,1.292,2.854,1.982c7.498,5.43,14.48,12.637,19.478,21.804
						c4.951,9.143,7.224,20.344,6.023,30.327c-1.084,10.083-4.368,18.779-8.591,26.619c-4.302,7.966-10.466,15.349-18.02,20.764
						c-7.458,5.527-16.145,8.894-24.6,10.427c-17.043,2.856-33.459-0.601-46.846-8.699c15.31-2.034,29.346-5.369,40.464-11.318
						c11.152-5.938,18.35-14.019,22.771-24.421c2.327-5.3,3.74-10.847,3.77-15.459c0.1-4.709-1.257-8.45-3.442-12.131
						c-2.334-3.633-5.996-7.092-10.557-10.061c-0.559-0.378-1.123-0.754-1.724-1.096l-0.884-0.532l-1.428-0.928
						c-0.715-0.488-1.409-1.008-2.083-1.616c-5.535-4.709-8.479-12.368-7.793-19.312c0.291-3.503,1.392-6.936,3.191-9.958
						c0.901-1.504,1.956-2.917,3.149-4.165c0.591-0.647,1.213-1.208,1.86-1.76l1.167-0.964c0.786-0.674,1.584-1.367,2.312-2.188
						c6.023-6.348,9.402-17.141,10.317-29.25c0.203-3.044,0.254-6.16,0.217-9.321c-0.09-2.754-0.352-5.33-0.83-7.776
						c-1.052-4.846-2.686-9.041-5.386-12.734c-5.244-7.31-15.203-13.12-26.836-16.262l-2.178-0.552l-1.096-0.249
						c0.464,0.071-2.864-0.483-4.875-1.46c-4.5-1.87-8.396-5.725-10.393-10.056c-2.063-4.346-2.485-9.204-1.421-13.647
						c0.525-2.209,1.416-4.319,2.559-6.14l0.962-1.443l0.085-0.107c0.129-0.115,0.298-0.249,0.435-0.542
						c0.339-0.415,0.674-1.179,0.977-2.068c0.61-1.785,1.089-4.241,1.311-6.914c0.078-1.353,0.149-2.742,0.11-4.153l-0.125-3.801
						L1076.907,2311.985z"/>
				</g>
				<g>
					<path style="fill:#000072;" d="M1104.421,2496.493l-1.914-34.512c19.756-1.094,34.297-7.178,43.228-18.081
						c14.985-18.301,11.255-45.591,11.216-45.864l34.17-5.205c0.264,1.714,6.211,42.29-18.394,72.656
						C1157.404,2484.399,1134.421,2494.833,1104.421,2496.493z"/>
				</g>
			</g>
			<g>
				<g>
					<path style="fill:#FFFFFF;" d="M2931.96,1919.167c-1.531,25.576-7.061,47.45-14.813,61.818
						c-39.648,73.816-97.319,10.32-97.319,10.32c-17.331,33.723-58.213,24.342-58.213,24.342c1.678,12.146,1.185,21.972-0.84,29.921
						c-6.616,26.07-29.674,32.094-46.265,32.933c-1.481,0.049-2.962,0.198-4.444,0.345c-11.554,1.136-22.762,4.444-33.18,9.628
						c-2.222,1.037-4.395,2.222-6.518,3.456c-10.961,6.468-21.478,13.232-31.65,20.244
						c-190.243,131.487-248.457,357.379-248.457,357.379c4.395,28.144,11.258,54.214,19.898,79.099
						c44.882,130.351,136.572,229.101,166.296,435.095c6.468,44.635,11.307,82.358,14.911,114.057
						c9.53,82.802-41.574,159.976-119.587,183.676c-6.123,1.926-12.443,3.457-18.911,4.641
						c-378.906,69.57-649.829-81.222-649.829-81.222c15.899,102.602-77.223,163.976-152.372,181.948
						c-75.1,18.022-297.289,141.806-355.503,9.53c-13.825-31.452-14.467-58.214-7.357-80.679
						c9.777-31.304,34.464-54.412,59.3-70.557c32.489-21.034,65.126-30.218,65.126-30.218
						c-134.894-190.786-61.324-347.06-10.171-419c19.602-27.601,35.945-42.808,35.945-42.808s0-0.049-0.049-0.198
						c-49.573-187.133-55.301-315.953-49.869-395.398c4.74-69.718,18.121-101.516,18.121-101.516l579.37-210.734l382.462-222.831
						c0.494-0.296,0.988-0.592,1.432-0.839l191.873-111.786c63.398-36.933,139.238-48.092,209.796-27.947
						C2902.236,1719.295,2936.996,1838.043,2931.96,1919.167z"/>
				</g>
				<g>
					<path style="fill:#FFA300;" d="M2471.782,3281.482c-153.607-58.411-262.776-207.08-262.776-381.227
						c0-149.804,80.778-280.748,201.156-351.602c44.882,130.351,136.572,229.101,166.296,435.095
						c6.468,44.635,11.307,82.358,14.911,114.057C2600.898,3180.609,2549.795,3257.782,2471.782,3281.482z"/>
				</g>
				<g style="opacity:0.3;">
					<path style="fill:#000072;" d="M2931.96,1919.167c-1.531,25.576-7.061,47.45-14.813,61.818
						c-39.648,73.816-97.319,10.32-97.319,10.32c-17.331,33.723-58.213,24.342-58.213,24.342c1.678,12.146,1.185,21.972-0.84,29.921
						c-42.813,3.596-67.941-7.852-82.126-19.468c-11.631-9.524-27.197-13.25-41.781-9.606c-38.322,9.573-81.544-6.92-81.544-6.92
						c13.479,67.052,123.389,77.026,123.389,77.026l-1.827,1.876c-2.222,1.037-4.395,2.222-6.518,3.456
						c-10.961,6.468-21.478,13.232-31.65,20.244c-181.257-33.131-117.908-161.754-117.908-161.754
						c13.085-51.548-13.924-92.826-13.924-92.826c58.875-18.307,85.259,17.651,96.441,44.536
						c11.06,26.591,42.769,38.186,67.478,23.391c10.701-6.407,17.289-13.565,17.289-13.565c6.863-27.502-3.703-47.598-3.703-47.598
						c57.406,17.833-0.522,92.425,74.606,114.255c43.038,12.505,68.434-66.657,68.434-66.657c2.074,15.85,0,33.279,0,33.279
						C2907.174,2000.044,2930.923,1922.771,2931.96,1919.167z"/>
				</g>
				<g style="opacity:0.3;">
					<path style="fill:#000072;" d="M2710.067,2078.847c-11.554,1.136-22.762,4.444-33.18,9.628
						c-2.222,1.037-4.395,2.222-6.518,3.456c-10.961,6.468-21.478,13.232-31.65,20.244
						c-190.243,131.487-248.457,357.379-248.457,357.379c4.395,28.144,11.258,54.214,19.898,79.099
						c44.882,130.351,136.572,229.101,166.296,435.095c6.468,44.635,11.307,82.358,14.911,114.057
						c9.53,82.802-41.574,159.976-119.587,183.676c-6.123,1.926-12.443,3.457-18.911,4.641
						c-378.906,69.57-649.829-81.222-649.829-81.222s-86.357-43.599-125.167-71.545c0,0,487.221,200.561,671.124,44.015
						c224.515-191.116-167.384-507.191,4.059-941.549c2.052-5.2,9.61-4.619,10.793,0.844c1.663,7.676,3.773,17.089,6.118,26.771
						c1.701,7.023,11.15,8.294,14.604,1.947C2416.31,2207.071,2528.02,2032.984,2710.067,2078.847z"/>
				</g>
				<g style="opacity:0.3;">
					<path style="fill:#000072;" d="M1976.053,2278.57c41.229,30.168,147.583,66.607,147.583,66.607
						c-130.167,335.589-312.488,264.569-366.68,233.881c-8.234-4.663-18.649-0.883-22.17,7.901
						c-5.188,12.943-13.51,30.674-24.865,45.534c-20.59,26.959-19.553,112.675-19.553,112.675
						c-263.05-63.185-253.048-259.425-240.05-330.793c2.706-14.858-5.119-29.56-19-35.51c-13.944-5.976-28.861-13.513-43.226-21.343
						c4.74-69.718,18.121-101.516,18.121-101.516l579.37-210.734l382.462-222.831c-115.661,67.395-311.424,257.602-411.515,358.342
						c-26.351,26.522-22.048,70.994,9.541,90.992C1969.383,2273.872,1972.718,2276.133,1976.053,2278.57z"/>
				</g>
				<g style="opacity:0.3;">
					<path style="fill:#000072;" d="M1599.813,3241.933c0,0-122.549,66.015-252.703,3.209
						c32.489-21.034,65.126-30.218,65.126-30.218S1467.437,3267.904,1599.813,3241.933z"/>
				</g>
				<g style="opacity:0.3;">
					<path style="fill:#000072;" d="M1484.126,2894.281c-2.222-1.481-55.992-38.217-82.062-98.356
						c19.602-27.601,35.945-42.808,35.945-42.808S1462.895,2850.633,1484.126,2894.281z"/>
				</g>
				<g style="opacity:0.3;">
					<path style="fill:#000072;" d="M1650.67,3386.85c-75.1,18.022-297.289,141.806-355.503,9.53
						c-13.825-31.452-14.467-58.214-7.357-80.679c12.048,2.518,20.787,11.899,21.133,33.082
						c0.503,33.691,22.419,48.268,44.861,54.346c23.258,6.299,47.273-4.52,59.386-25.349c20.136-34.627,54.198-41.439,54.198-41.439
						s-26.169,46.018,31.748,35.699c57.917-10.32,71.397-20.639,161.062-59.498c89.666-38.908,59.794-97.615,59.794-97.615
						c-32.291-41.821-42.117-81.568-42.117-81.568c40.932,30.563,125.167,71.545,125.167,71.545
						C1818.941,3307.503,1725.819,3368.877,1650.67,3386.85z"/>
				</g>
				<g>
					<path style="fill:#000072;" d="M1398.552,3473.72c-51.206,0.005-95.957-17.593-119.185-70.376
						c-17.002-38.647-17.759-74.897-2.246-107.744c23.267-49.253,77.515-77.139,108.257-89.512
						c-86.807-134.546-73.804-251.338-46.499-326.938c24.458-67.72,63.613-113.906,79.927-131.196
						c-89.941-346.03-31.113-492.529-28.54-498.647c1.865-4.438,5.498-7.9,10.024-9.546l577.91-210.21l574.463-334.682
						c68.35-39.822,149.707-50.628,223.223-29.627c90.762,25.923,133.198,86.726,152.813,133.171
						c30.366,71.885,24.565,151.936,3.691,190.759c-14.351,26.697-32.964,41.628-55.317,44.368
						c-22.275,2.729-41.904-7.622-54.741-17.075c-12.642,11.89-28.608,16.523-42.505,17.51c-0.737,15.791-5.41,28.955-13.965,39.292
						c-11.274,13.623-28.73,21.401-50.474,22.49c-12.451,0.625-24.985,4.458-36.255,11.089
						c-193.281,113.833-262.603,333.965-271.206,363.691c12.485,75.317,43.955,136.567,77.236,201.348
						c41.568,80.898,88.677,172.593,108.418,309.395c5.991,41.504,11.03,80.049,14.976,114.565
						c11.279,98.433-55.728,189.473-152.544,207.256c-72.905,13.389-141.782,18.828-205.498,18.828
						c-212.485,0.01-368.057-60.459-428.535-88.354c-3.56,89.951-85.176,150.439-167.266,170.098
						c-14.399,3.447-35.659,11.47-60.278,20.757C1539.484,3445.16,1463.786,3473.72,1398.552,3473.72z M1419.875,2269.413
						c-9.81,32.212-44.346,180.469,34.854,479.253c1.636,6.167-0.259,12.729-4.927,17.075c-0.488,0.459-51.094,48.481-78.887,126.46
						c-36.851,103.398-18.208,208.623,55.41,312.754c3.242,4.585,4.053,10.459,2.178,15.752c-1.88,5.293-6.211,9.346-11.616,10.859
						c-0.806,0.229-82.72,24.004-108.56,78.892c-11.157,23.691-10.278,49.521,2.681,78.97c36.557,83.096,154.038,46.88,271.23,2.661
						c25.708-9.697,47.91-18.076,64.429-22.031c54.844-13.13,154.541-64.004,139.302-162.534
						c-1.006-6.523,1.787-13.052,7.207-16.826c5.42-3.77,12.52-4.121,18.276-0.913c2.656,1.465,270.425,146.875,638.32,79.321
						c78.999-14.512,133.662-88.892,124.448-169.331c-3.911-34.185-8.906-72.393-14.848-113.555
						c-18.916-131.089-62.652-216.216-104.951-298.54c-35.127-68.379-68.31-132.959-81.235-215.464
						c-0.361-2.329-0.249-4.707,0.342-6.992c2.71-10.518,68.94-259.106,288.071-388.164c16.059-9.448,34.058-14.922,52.06-15.825
						c8.232-0.41,19.351-2.48,25.576-10.005c5.625-6.797,7.402-17.969,5.283-33.213c-0.781-5.63,1.255-11.284,5.449-15.122
						c4.185-3.84,9.99-5.364,15.542-4.099c2.754,0.601,28.276,5.396,38.945-15.388c2.588-5.042,7.486-8.491,13.106-9.233
						c5.63-0.74,11.245,1.316,15.059,5.513c5.63,6.104,23.965,21.626,40.332,19.536c10.532-1.333,20.288-10.222,28.999-26.418
						c14.204-26.418,22.407-95.842-5.088-160.945c-16.679-39.49-52.856-91.218-130.469-113.386
						c-64.512-18.416-136.069-8.853-196.328,26.257l-575.801,335.464c-0.894,0.518-1.826,0.957-2.793,1.309L1419.875,2269.413z"/>
				</g>
				<g>
					<g>
						<path style="fill:#000072;" d="M1454.941,2749.565c1.88,11.479,4.087,23.738,6.25,35.698
							c2.278,12.012,4.634,24.063,7.148,36.111c2.471,12.068,5.232,24.087,7.9,36.218c2.634,12.151,5.469,24.292,7.954,36.75
							c-14.822-20.588-26.636-43.057-36.897-66.123c-5.193-11.526-9.998-23.232-14.336-35.125
							c-4.46-11.943-8.438-23.716-11.855-36.47L1454.941,2749.565z"/>
					</g>
					<g>
						<path style="fill:#000072;" d="M1795.505,3220.43c-10.808-6.003-21.169-12.253-31.47-18.87
							c-10.33-6.497-20.491-13.289-30.498-20.339c-9.98-7.083-19.907-14.265-29.373-22.161
							c-9.451-7.852-18.665-16.235-26.494-25.862c11.216,5.164,22.388,9.727,33.445,14.504c11.079,4.709,22.073,9.507,33.188,14.077
							l66.287,27.551L1795.505,3220.43z"/>
					</g>
					<g>
						<path style="fill:#000072;" d="M1424.778,3203.064c-0.002,0.068,0.728,0.801,1.196,1.299c0.464,0.532,1.177,1.128,1.76,1.697
							c1.162,1.182,2.524,2.317,3.867,3.467c2.668,2.297,5.598,4.492,8.594,6.575c3.01,2.102,6.057,4.199,9.326,6.011
							c3.157,2,6.519,3.674,9.915,5.33c13.53,6.758,28.335,11.526,43.721,14.729l11.677,2.014c3.909,0.767,7.893,0.803,11.868,1.248
							c7.971,0.991,16.003,0.698,24.138,0.911c8.132,0.11,16.221-0.908,24.465-1.265c8.149-0.913,16.323-2.1,24.6-3.167
							c-7.732,2.925-15.503,6.013-23.411,8.855l-12.112,3.423c-4.067,1.086-8.11,2.437-12.285,3.098
							c-8.303,1.614-16.67,3.425-25.227,3.972c-4.27,0.325-8.555,1.052-12.866,1.033l-13.005,0.19
							c-17.371-0.564-35.005-3.13-52.136-8.623c-4.272-1.396-8.542-2.852-12.693-4.707c-4.229-1.653-8.328-3.674-12.424-5.769
							c-4.07-2.156-8.057-4.5-11.987-7.141c-1.963-1.318-3.928-2.622-5.876-4.158c-0.979-0.774-1.912-1.431-2.932-2.334
							c-1.04-0.906-1.86-1.536-3.296-2.952L1424.778,3203.064z"/>
					</g>
					<g>
						<path style="fill:#000072;" d="M1418.777,3458.066c-0.984-3.44-1.624-6.096-2.2-9.121c-0.579-2.937-1.099-5.864-1.455-8.816
							c-0.823-5.889-1.223-11.829-1.377-17.808c-0.271-11.946,0.835-24.119,3.713-36.194c1.372-6.057,3.579-12.021,6.125-17.852
							c2.556-5.818,5.771-11.545,10.122-16.482c4.287-4.939,9.475-9.194,15.327-11.948c5.92-2.646,12.17-4.033,18.352-3.503
							c-7.957,9.58-12.556,17.937-15.54,26.746c-1.497,4.368-2.849,8.73-3.672,13.367c-0.879,4.607-1.179,9.377-1.492,14.18
							c-0.359,9.67,0.215,19.592,1.338,29.573c0.527,4.99,1.255,9.988,1.965,14.98l2.314,14.473L1418.777,3458.066z"/>
					</g>
					<g>
						<path style="fill:#000072;" d="M1279.578,3400.149c0.027-5.681,0.42-10.251,1.104-15.278c0.635-4.915,1.58-9.783,2.71-14.626
							c2.28-9.675,5.576-19.253,10.103-28.462c4.663-9.102,10.388-18.176,18.672-25.193c8.123-7.014,19.604-10.981,29.575-8.55
							c-7.803,6.699-12.439,13.086-15.894,20.2c-1.721,3.523-3.35,7.031-4.614,10.803c-1.279,3.767-2.146,7.72-3.057,11.663
							c-1.606,7.986-2.568,16.24-3.13,24.587c-0.303,4.167-0.466,8.364-0.635,12.539l-0.271,12.056L1279.578,3400.149z"/>
					</g>
					<g>
						<path style="fill:#000072;" d="M2803.228,1986.501c0.95-2.268,2.251-5.447,3.303-8.296c1.143-2.939,2.327-5.911,3.401-8.931
							c2.158-6.038,4.543-12.151,6.443-18.413c2.051-6.245,4.038-12.593,5.94-19.063c1.997-6.472,3.611-13.062,5.581-19.849
							c2.537,6.545,4.524,13.303,6.038,20.171c1.592,6.873,2.642,13.848,3.345,20.876c0.586,7.019,1.111,14.128,0.969,21.235
							c-0.063,3.555-0.173,7.131-0.408,10.72c-0.381,3.665-0.579,6.992-1.411,11.155L2803.228,1986.501z"/>
					</g>
					<g>
						<path style="fill:#000072;" d="M2764.099,2032.744c-3.752,0.459-6.104,0.542-9.016,0.625c-2.764,0.051-5.513,0.02-8.237-0.154
							c-5.464-0.259-10.896-1.023-16.318-2.073c-10.815-2.205-21.599-6.26-31.382-12.4c-5.007-2.866-9.419-6.758-13.772-10.557
							c-4.023-4.18-8.086-8.359-11.167-13.188c-3.567-4.585-5.886-9.673-8.484-14.661c-2.41-5.029-3.928-10.247-5.845-15.391
							c-1.45-3.889-1.104-8.008,0.623-11.448l1.27-2.502c0.435-0.679,1.492-2.451,2.28-3.848c0.847-1.489,1.716-3.032,2.546-4.604
							c1.711-3.135,3.25-6.406,4.829-9.712c3.037-6.655,5.667-13.613,7.698-20.872c2.1-7.251,3.657-14.827,4.434-22.722
							c0.996-7.942,0.957-16.118,0.842-24.9c5.232,6.826,10.039,14.556,12.83,23.079c1.711,4.219,2.595,8.616,3.723,13.083
							c0.647,4.46,1.597,9.045,1.682,13.625c0.552,9.187,0.044,18.552-1.807,27.683c-0.889,4.58-2.095,9.104-3.584,13.589
							c-0.803,2.222-1.563,4.475-2.556,6.687c-0.991,2.329-1.873,4.209-3.525,7.095l-0.005,0.007l1.892-13.948
							c1.423,3.481,2.415,7.256,4.028,10.554c1.75,3.184,3.162,6.643,5.413,9.338c3.894,5.942,9.036,10.608,14.951,14.29
							c5.891,3.706,12.69,6.367,20.02,7.861c3.674,0.693,7.427,1.25,11.221,1.418c1.899,0.129,3.782,0.146,5.649,0.115
							c1.716-0.022,3.994-0.19,4.841-0.281L2764.099,2032.744z"/>
					</g>
					<g>
						<path style="fill:#000072;" d="M2688.008,1972.952l-2.192,2.046c-0.64,0.588-1.245,1.113-1.868,1.628
							c-1.248,1.045-2.471,2.009-3.721,2.957c-2.485,1.885-5.012,3.657-7.654,5.227c-5.254,3.174-10.708,6.05-16.467,8.284
							c-5.73,2.307-11.729,3.999-17.815,5.364c-6.235,1.255-11.97,1.963-19.395,2c-7.053-0.237-14.199-1.133-20.93-3.438
							c-6.68-2.322-13.174-5.325-18.85-9.458c-11.477-8.074-20.393-19.343-25.64-32.058c-2.62-6.343-4.409-13.032-5.122-19.795
							c-0.486-3.835-0.552-5.571-0.728-8.049c-0.149-2.351-0.432-4.646-0.635-6.98c-1.118-9.192-2.842-18.147-5.723-26.096
							c-1.399-4.045-3.13-7.585-4.814-11.204c-1.897-3.291-3.721-6.755-6.228-9.67c-4.756-6.113-12.314-11.582-23.315-16.113
							c9.48-6.936,23.438-8.386,35.881-2.927c6.328,2.502,11.587,6.765,16.26,11.382c4.326,4.763,8.076,10.024,10.784,15.466
							c5.654,10.864,9.263,22.029,11.741,33.145c0.554,2.769,1.187,5.557,1.663,8.33c0.464,2.644,0.92,6.045,1.294,7.3
							c0.632,3.479,1.96,6.746,3.481,9.832c3.086,6.174,7.83,11.399,13.362,15.015c5.552,3.645,11.833,5.586,18.293,5.903
							c2.905,0.088,7.468-0.364,11.379-0.984c4.026-0.664,8.071-1.494,12.012-2.822c3.928-1.323,7.905-2.715,11.68-4.546
							c1.89-0.901,3.757-1.843,5.566-2.817l2.61-1.501l1.206-0.723c0.332-0.176,0.879-0.569,0.796-0.415L2688.008,1972.952z"/>
					</g>
					<g>
						<path style="fill:#000072;" d="M2679.953,2103.857c-4.165-0.205-102.3-5.688-134.468-63.203
							c-16.031-28.662-12.993-63.555,9.023-103.704l30.303,16.616c-15.894,28.992-18.984,52.6-9.185,70.173
							c18.911,33.896,82.964,44.409,106.045,45.596L2679.953,2103.857z"/>
					</g>
					<g>
						<path style="fill:#000072;" d="M2374.651,2476.948c-1.294-3.049-1.167-3.179-1.604-4.47l-0.769-2.832
							c-0.449-1.765-0.818-3.513-1.13-5.183c-0.659-3.367-1.177-6.611-1.709-9.871c-1.021-6.443-1.694-12.866-2.339-19.229
							c-1.213-12.754-1.865-25.435-2.339-38.108c-0.745-25.354-0.986-50.635,3.284-76.296c4.875,12.087,8.467,24.28,11.819,36.472
							c3.306,12.197,6.047,24.431,9.043,36.589l8.647,36.277l4.341,17.769c0.754,2.876,1.497,5.769,2.302,8.496l1.182,3.926
							l0.544,1.682c0.042,0.198,0.637,1.567-0.046-0.039L2374.651,2476.948z"/>
					</g>
				</g>
			</g>
			<g>
				<g>
					<g>
						<path style="fill:#00A4FF;" d="M1689.133,2742.995c0.79,1.432,1.234,2.173,1.234,2.173s-149.163-20.639-196.81-201.501
							c-20.244-76.976-4.888-133.856,19.454-173.801c32.884-53.967,82.16-77.026,82.16-77.026
							c185.701,20.639,136.572,197.798,87.394,277.737C1637.733,2643.405,1681.035,2728.429,1689.133,2742.995z"/>
					</g>
					<g style="opacity:0.3;">
						<path style="fill:#000072;" d="M1689.133,2742.995c-100.165-59.249-63.717-175.75-38.311-231.81
							c8.806-19.431,7.778-41.781-2.238-60.616c-0.16-0.301-0.319-0.601-0.475-0.9c-10.183-19.383-29.87-32.178-51.712-33.704
							c-47.143-3.294-71.391-26.932-83.385-46.099c32.884-53.967,82.16-77.026,82.16-77.026
							c185.701,20.639,136.572,197.798,87.394,277.737C1637.733,2643.405,1681.035,2728.429,1689.133,2742.995z"/>
					</g>
					<g style="opacity:0.7;">
						<path style="fill:#FFFFFF;" d="M1684.349,2733.679c-47.861-22.121-116.726-72.612-146.354-185.075
							c-20.244-76.976-4.888-133.856,19.454-173.801c26.524-43.531,63.698-66.94,77.09-74.371
							c-11.762-3.407-24.847-5.978-39.368-7.592c0,0-49.277,23.058-82.16,77.026c-24.342,39.945-39.698,96.825-19.454,173.801
							c47.647,180.862,196.81,201.501,196.81,201.501s-0.444-0.741-1.234-2.173
							C1688.062,2741.069,1686.366,2737.879,1684.349,2733.679z"/>
					</g>
					<g>
						<path style="fill:#000072;" d="M1690.373,2762.441c-0.786,0-1.577-0.054-2.373-0.161
							c-6.558-0.908-161.172-24.39-211.143-214.238c-50.693-192.588,109.341-270.083,110.962-270.845
							c2.886-1.348,6.099-1.86,9.243-1.528c66.191,7.358,110.957,34.023,133.047,79.263c36.821,75.41-3.32,176.729-32.847,224.712
							c-43.174,70.156,7.393,155.742,7.91,156.602c3.433,5.703,3.286,12.871-0.376,18.433
							C1701.569,2759.565,1696.125,2762.441,1690.373,2762.441z M1598.347,2310.639c-22.993,12.563-127.466,78.901-88.062,228.604
							c30.439,115.654,104.927,161.479,148.74,178.853c-13.799-37.944-26.089-99.863,8.804-156.567
							c33.486-54.419,57.539-137.534,31.221-191.431C1683.029,2337.284,1649.157,2317.294,1598.347,2310.639z"/>
					</g>
					<g>
						<path style="fill:#000072;" d="M1637.71,2305.891c-1.619,3.271-3.623,7.573-5.386,11.555
							c-1.831,4.041-3.535,8.208-5.313,12.329l-4.958,12.59c-1.519,4.26-3.167,8.479-4.595,12.783
							c-6.023,17.109-10.996,34.675-14.792,52.556c-1.077,4.458-2.024,8.94-2.712,13.464l-2.332,13.579
							c-1.14,9.102-2.671,18.257-3.408,27.5c-2.327,18.54-2.52,37.219-3.831,56.755c-7.397-17.917-12.649-37.009-14.834-56.492
							c-1.58-9.749-1.646-19.553-2.087-29.424c-0.129-4.929,0.249-9.834,0.354-14.771c0.085-4.944,0.435-9.863,0.925-14.775
							c1.592-19.707,5.146-39.277,10.442-58.413c2.729-9.541,5.742-19.036,9.382-28.335c1.88-4.639,3.696-9.29,5.879-13.855
							c2.095-4.695,4.294-8.914,7.151-14.014L1637.71,2305.891z"/>
					</g>
				</g>
				<g>
					<g>
						<path style="fill:#00A4FF;" d="M2123.636,2345.177c0,0-136.474,253.987-319.014,187.33
							c-182.492-66.657-114.255-239.668-114.255-239.668c36.39-35.007,70.261-42.265,109.218-33.378
							c34.02,7.801,71.891,27.946,118.797,52.832c77.519,41.08,157.557,38.365,190.095,35.007
							C2118.156,2346.264,2123.636,2345.177,2123.636,2345.177z"/>
					</g>
					<g style="opacity:0.3;">
						<path style="fill:#000072;" d="M2123.636,2345.177c0,0-136.474,253.987-319.014,187.33
							c-182.492-66.657-114.255-239.668-114.255-239.668c36.39-35.007,70.261-42.265,109.218-33.378
							c-3.278,19.456-10.328,43.382-25.201,65.708c-41.578,62.414-0.731,147.351,74.222,149.872
							c16.688,0.561,35.828-1.053,57.778-5.487c87.79-17.726,156.125-72.582,202.093-122.254
							C2118.156,2346.264,2123.636,2345.177,2123.636,2345.177z"/>
					</g>
					<g>
						<path style="fill:#000072;" d="M1865.915,2560.854c-22.559,0-45.02-4.023-67.207-12.129
							c-59.751-21.816-100.806-56.821-122.031-104.043c-34.111-75.889-3.696-154.854-2.383-158.179
							c0.908-2.31,2.31-4.395,4.097-6.118c77.056-74.058,144.712-38.179,247.148,16.143l0.933,0.493
							c93.584,49.619,192.891,31.377,193.882,31.187c6.538-1.26,13.242,1.362,17.197,6.738c3.945,5.376,4.463,12.539,1.309,18.408
							c-1.445,2.69-36.064,66.509-94.258,122.891C1986.74,2532.299,1925.998,2560.854,1865.915,2560.854z M1705.271,2302.548
							c-4.834,14.609-21.577,73.755,3.052,128.237c17.3,38.262,51.699,67.017,102.241,85.479
							c130.649,47.676,238.828-88.306,280.01-150.293c-41.153,1.958-111.314-1.836-180.293-38.413l-0.933-0.498
							C1805.876,2272.197,1760.661,2251.474,1705.271,2302.548z"/>
					</g>
					<g>
						<path style="fill:#000072;" d="M1694.609,2308.584c21.841,17.72,44.768,35.977,68.149,51.87
							c11.641,8.14,23.713,15.408,35.803,22.261l9.177,4.844l9.304,4.282c6.321,2.795,12.942,5.625,19.534,8.047
							c13.232,4.929,26.76,8.972,40.515,12.107c13.772,3.04,27.798,4.863,41.973,5.461c7.073,0.144,14.199,0.132,21.326-0.359
							c7.124-0.503,14.219-1.521,21.321-2.82c14.124-2.808,28.289-7.063,41.309-14.456c-10.442,10.916-23.928,18.848-38.01,25.02
							c-14.185,6.082-29.365,10.188-44.839,12.292c-15.474,2.102-31.255,2.6-46.855,1.282c-15.635-1.113-31.101-3.855-46.238-7.659
							c-7.612-1.899-15.022-3.958-22.546-6.504l-11.287-4.192l-10.925-4.736c-14.431-6.499-27.898-14.47-40.989-22.751
							c-12.961-8.506-25.322-17.678-37.126-27.485c-11.841-9.915-22.954-19.971-33.718-31.753L1694.609,2308.584z"/>
					</g>
				</g>
				<g>
					<g>
						<path style="fill:#00A4FF;" d="M1653.879,2280.15c0,0-84.678,121.661-268.75,32.144
							c-135.832-66.064-132.326-108.873-121.068-126.796c3.95-6.369,8.888-9.579,8.888-9.579
							c-30.662-43.352-6.962-87.148-6.962-87.148c40.932,45.129,125.858,75.989,173.9,90.653
							c21.132,6.419,35.106,9.727,35.106,9.727L1653.879,2280.15z"/>
					</g>
					<g style="opacity:0.3;">
						<path style="fill:#000072;" d="M1653.879,2280.15c0,0-84.678,121.661-268.75,32.144
							c-135.832-66.064-132.326-108.873-121.068-126.796c15.592,22.387,50.148,54.146,125.187,71.073
							c28.924,6.525,55.526-17.419,52.077-46.868c-1.097-9.366-1.698-19.55-1.439-30.278c21.132,6.419,35.106,9.727,35.106,9.727
							L1653.879,2280.15z"/>
					</g>
					<g>
						<path style="fill:#000072;" d="M1511.613,2362.24c-37.705,0-82.339-9.258-134.053-34.409
							c-88.838-43.208-133.198-83.11-135.62-121.992c-0.835-13.428,3.696-24.37,9.346-32.28
							c-24.697-47.148-1.572-91.021-0.488-93.018c2.666-4.927,7.559-8.257,13.125-8.931c5.532-0.674,11.104,1.396,14.873,5.547
							c54.561,60.161,198.696,94.814,200.146,95.161c1.338,0.313,2.637,0.791,3.862,1.416l178.896,91.016
							c4.453,2.261,7.705,6.343,8.926,11.187c1.216,4.849,0.278,9.98-2.578,14.082
							C1667.365,2291.005,1616.174,2362.24,1511.613,2362.24z M1274.826,2120.4c-1.216,12.72,0.659,29.165,12.251,45.552
							c2.715,3.838,3.75,8.613,2.866,13.228c-0.884,4.619-3.608,8.672-7.549,11.235c-0.415,0.313-6.665,5.073-5.928,13.701
							c0.972,11.328,14.233,43.037,116.211,92.632c129.507,62.983,204.419,15.547,233.291-11.396l-157.031-79.897
							C1451.706,2201.22,1340.334,2172.406,1274.826,2120.4z"/>
					</g>
					<g>
						<path style="fill:#000072;" d="M1657.695,2297.002c-8.286,1.316-15.359,2.031-22.908,2.554
							c-7.434,0.608-14.832,0.796-22.212,0.989c-7.383,0.127-14.749-0.078-22.092-0.181c-7.344-0.452-14.675-0.752-21.978-1.34
							c-29.219-2.378-58.066-7.937-85.903-16.309l-10.444-3.083c-3.484-0.994-6.836-2.463-10.251-3.674
							c-6.787-2.581-13.613-4.99-20.31-7.705c-13.091-6.245-26.462-11.672-38.765-19.277c-25.452-13.542-48.008-31.57-69.556-50.029
							c23.386,16.243,47.268,31.628,73.411,42.295c12.644,6.167,26.213,10.105,39.338,14.832c6.716,1.958,13.53,3.601,20.259,5.413
							c3.389,0.825,6.699,1.909,10.139,2.52l10.283,1.926c27.322,5.278,55.1,7.749,82.72,7.188
							c6.899-0.146,13.792-0.571,20.659-0.833c6.855-0.61,13.713-1.108,20.51-1.919c6.794-0.876,13.574-1.731,20.242-2.971
							c6.57-1.101,13.552-2.605,19.197-4.097L1657.695,2297.002z"/>
					</g>
				</g>
				<g>
					<g>
						<path style="fill:#00A4FF;" d="M2320.446,1850.189c0,0,0,0-0.049,0.049c-257.097,165.012-566.335,435.738-566.335,435.738
							l-63.694-120.081c22.515-21.231,45.179-41.08,67.792-59.547C2041.377,1874.581,2320.446,1850.189,2320.446,1850.189z"/>
					</g>
					<g style="opacity:0.3;">
						<path style="fill:#000072;" d="M2320.397,1850.239c-257.097,165.012-566.335,435.738-566.335,435.738l-63.694-120.081
							c22.515-21.231,45.179-41.08,67.792-59.547c0.139,0.189,0.277,0.377,0.416,0.567c20.079,27.381,58.392,33.498,85.71,13.335
							C1935.717,2052.765,2127.992,1920.715,2320.397,1850.239z"/>
					</g>
					<g>
						<path style="fill:#000072;" d="M1754.055,2303.266c-1.04,0-2.09-0.093-3.13-0.283c-5.19-0.957-9.663-4.233-12.139-8.901
							l-63.687-120.103c-3.643-6.875-2.246-15.332,3.413-20.669c305.571-288.069,626.885-319.175,640.415-320.359
							c7.847-0.693,15.288,4.106,17.856,11.633c2.569,7.524-0.327,15.83-7.017,20.127
							c-253.047,162.451-561.245,431.577-564.331,434.277C1762.263,2301.767,1758.205,2303.266,1754.055,2303.266z
							 M1711.838,2169.487l47.319,89.233c60.61-52.129,277.915-236.372,481.787-376.414
							C2128.357,1909.147,1915.388,1981.559,1711.838,2169.487z"/>
					</g>
					<g>
						<path style="fill:#000072;" d="M1707.102,2206.211c25.278-20.071,50.671-38.23,76.768-56.062
							c26.025-17.749,52.471-34.792,79.402-50.981c26.89-16.248,54.148-31.821,81.912-46.389
							c27.605-14.839,55.918-28.286,84.287-41.372c-27.07,15.657-53.906,31.582-79.902,48.816
							c-26.147,16.96-51.663,34.844-76.687,53.308c-25.066,18.406-49.531,37.581-73.44,57.341
							c-23.813,19.697-47.493,40.237-69.348,61.147L1707.102,2206.211z"/>
					</g>
				</g>
				<g>
					<g>
						<path style="fill:#00A4FF;" d="M1663.408,2343.647c-84.135,77.766-190.984-47.647-190.984-132.82
							c0-43.055,24.737-57.423,49.178-61.127c23.898-3.654,47.598,2.963,47.598,2.963c1.382-1.926,2.765-3.802,4.147-5.629
							c58.609-77.223,182.541-38.908,189.651,57.769C1774.207,2356.731,1663.408,2343.647,1663.408,2343.647z"/>
					</g>
					<g style="opacity:0.3;">
						<path style="fill:#000072;" d="M1763.008,2204.81c-3.459-46.851-34.361-79.934-71.945-92.869
							c6.936,12.683,8.217,27.823,12.695,43.493c43.574,152.491-67.707,143.869-94.14,139.81c-3.021-0.464-5.867,1.463-6.631,4.423
							c-11.743,45.496-63.421,23.77-92.452,10.963c38.693,50.789,100.224,81.658,152.852,33.002
							C1663.387,2343.633,1774.223,2356.742,1763.008,2204.81z"/>
					</g>
					<g style="opacity:0.3;">
						<path style="fill:#000072;" d="M1622.673,2245.242c0,0-94.949-3.604-101.071-95.542c23.898-3.654,47.598,2.963,47.598,2.963
							S1552.561,2207.124,1622.673,2245.242z"/>
					</g>
					<g style="opacity:0.7;">
						<path style="fill:#FFFFFF;" d="M1497.112,2240.452c0-43.055,24.737-57.424,49.178-61.127
							c12.317-1.883,22.136-0.056,28.76,2.156c6.64,2.218,13.922,1.425,19.791-2.392c1.556-1.012,2.782-1.887,3.193-2.431
							c39.567-52.135,108.867-51.555,151.934-15.963c-34.585-62.24-128.027-77.692-176.622-13.662
							c-1.382,1.827-2.765,3.703-4.147,5.629c0,0-23.7-6.616-47.598-2.963c-24.441,3.703-49.178,18.072-49.178,61.127
							c0,39.686,23.203,88.1,56.491,120.635C1509.402,2302.822,1497.112,2269.327,1497.112,2240.452z"/>
					</g>
					<g>
						<path style="fill:#000072;" d="M1605.73,2385.326c-13.965,0-28.262-3.096-42.554-9.346
							c-58.569-25.615-108.047-101.235-108.047-165.132c0-28.418,9.233-49.839,27.451-63.677
							c25.723-19.536,61.025-16.934,79.463-13.745c31.406-38.857,80.571-54.028,129.326-39.6
							c50.166,14.854,85.049,57.915,88.877,109.707c4.312,58.442-7.92,101.87-36.348,129.072
							c-26.45,25.308-59.111,28.574-74.219,28.574c-0.039,0-0.083,0-0.127,0C1650.129,2377.192,1628.366,2385.326,1605.73,2385.326z
							 M1536.989,2165.873c-11.88,0-24.663,2.075-33.569,8.872c-9.238,7.056-13.73,18.862-13.73,36.104
							c0,49.863,41.626,113.477,87.334,133.467c27.104,11.851,52.217,7.358,74.629-13.374c3.716-3.433,8.731-5.049,13.765-4.473
							c0.205,0.024,31.963,3.091,54.878-19.116c20.405-19.775,28.98-53.848,25.479-101.274
							c-3.345-45.298-35.366-70.566-64.219-79.111c-28.13-8.325-67.725-4.688-94.448,30.503c-1.26,1.66-2.515,3.374-3.765,5.146
							c-4.204,5.962-11.714,8.643-18.735,6.694C1559.152,2167.822,1548.493,2165.873,1536.989,2165.873z"/>
					</g>
					<g>
						<path style="fill:#000072;" d="M1586.067,2156.514l-0.569,5.176c-0.22,1.978-0.405,3.967-0.505,5.991
							c-0.322,4.031-0.347,8.074-0.293,12.119c0.193,8.076,1.406,16.008,3.962,23.75c2.573,7.715,6.56,15.383,12.539,22.209
							c2.715,3.726,6.316,6.653,9.775,10.1c3.589,3.264,7.683,5.959,11.675,9.375c-5.002-0.452-10.283-0.85-15.383-2.092
							c-4.956-1.56-10.352-2.771-15.063-5.54c-10.01-4.563-18.923-12.332-25.854-21.682c-7.017-9.358-11.738-20.486-14.087-31.843
							c-0.452-2.842-1.05-5.71-1.338-8.579c-0.203-2.874-0.51-5.759-0.476-8.645c-0.046-2.881,0.105-5.781,0.359-8.687
							c0.322-3.052,0.654-5.53,1.567-9.368L1586.067,2156.514z"/>
					</g>
					<g>
						<path style="fill:#000072;" d="M1658.071,2360.076c-3.208-1.328-5.217-2.549-7.6-4.019c-2.273-1.448-4.465-2.964-6.555-4.626
							c-4.204-3.271-8.091-6.97-11.616-10.972c-3.579-3.906-6.638-8.43-9.189-13.074c-2.539-4.68-4.243-9.902-5.002-15.098
							c4.888,2.2,9.302,4.036,13.708,5.569c4.38,1.553,8.604,2.876,12.837,4.036c4.238,1.13,8.42,2.102,12.537,3l6.106,1.255
							c1.885,0.383,4.214,0.862,5.408,1.042L1658.071,2360.076z"/>
					</g>
				</g>
			</g>
		</g>
	</g>
</g>
</svg>